<mxfile host="65bd71144e">
    <diagram id="BP4IyV99Q6ScG7P9Ww7g" name="Page-1">
        <mxGraphModel dx="1066" dy="667" grid="1" gridSize="10" guides="1" tooltips="1" connect="1" arrows="1" fold="1" page="1" pageScale="1" pageWidth="850" pageHeight="1100" math="0" shadow="0">
            <root>
                <mxCell id="0"/>
                <mxCell id="1" parent="0"/>
                <mxCell id="2" value="getRequestedPage" style="rounded=0;whiteSpace=wrap;html=1;" vertex="1" parent="1">
                    <mxGeometry y="60" width="200" height="40" as="geometry"/>
                </mxCell>
                <mxCell id="3" value="showResponsePage" style="rounded=0;whiteSpace=wrap;html=1;" vertex="1" parent="1">
                    <mxGeometry y="100" width="200" height="40" as="geometry"/>
                </mxCell>
                <mxCell id="4" value="showResponsePage" style="rounded=0;whiteSpace=wrap;html=1;fontStyle=1" vertex="1" parent="1">
                    <mxGeometry y="160" width="200" height="40" as="geometry"/>
                </mxCell>
                <mxCell id="5" value="showHeadSection" style="rounded=0;whiteSpace=wrap;html=1;" vertex="1" parent="1">
                    <mxGeometry y="200" width="200" height="40" as="geometry"/>
                </mxCell>
                <mxCell id="6" value="showBodySection" style="rounded=0;whiteSpace=wrap;html=1;" vertex="1" parent="1">
                    <mxGeometry y="240" width="200" height="40" as="geometry"/>
                </mxCell>
                <mxCell id="7" value="endDocument" style="rounded=0;whiteSpace=wrap;html=1;" vertex="1" parent="1">
                    <mxGeometry y="280" width="200" height="40" as="geometry"/>
                </mxCell>
                <mxCell id="16" value="beginDocument" style="rounded=0;whiteSpace=wrap;html=1;" vertex="1" parent="1">
                    <mxGeometry y="20" width="200" height="40" as="geometry"/>
                </mxCell>
                <mxCell id="17" value="showHeader" style="rounded=0;whiteSpace=wrap;html=1;" vertex="1" parent="1">
                    <mxGeometry y="380" width="200" height="40" as="geometry"/>
                </mxCell>
                <mxCell id="20" value="showBody" style="rounded=0;whiteSpace=wrap;html=1;" vertex="1" parent="1">
                    <mxGeometry y="420" width="200" height="40" as="geometry"/>
                </mxCell>
                <mxCell id="21" value="showFooter" style="rounded=0;whiteSpace=wrap;html=1;" vertex="1" parent="1">
                    <mxGeometry y="460" width="200" height="40" as="geometry"/>
                </mxCell>
                <mxCell id="41" value="see Process-form-data" style="rounded=0;whiteSpace=wrap;html=1;fontStyle=2" vertex="1" parent="1">
                    <mxGeometry x="648" y="160" width="200" height="40" as="geometry"/>
                </mxCell>
                <mxCell id="66" value="showBodySection" style="rounded=0;whiteSpace=wrap;html=1;fontStyle=1" vertex="1" parent="1">
                    <mxGeometry y="340" width="200" height="40" as="geometry"/>
                </mxCell>
                <mxCell id="67" value="showHeader" style="rounded=0;whiteSpace=wrap;html=1;fontStyle=1" vertex="1" parent="1">
                    <mxGeometry x="238" y="340" width="200" height="40" as="geometry"/>
                </mxCell>
                <mxCell id="68" value="showMenu" style="rounded=0;whiteSpace=wrap;html=1;" vertex="1" parent="1">
                    <mxGeometry x="238" y="420" width="200" height="40" as="geometry"/>
                </mxCell>
                <mxCell id="69" value="showTitle" style="rounded=0;whiteSpace=wrap;html=1;" vertex="1" parent="1">
                    <mxGeometry x="238" y="380" width="200" height="40" as="geometry"/>
                </mxCell>
                <mxCell id="8" value="responsePage" style="rounded=0;whiteSpace=wrap;html=1;verticalAlign=top;" vertex="1" parent="1">
                    <mxGeometry x="250" y="20" width="1200" height="40" as="geometry"/>
                </mxCell>
                <mxCell id="12" value="" style="endArrow=none;html=1;exitX=0;exitY=0;exitDx=0;exitDy=0;entryX=1;entryY=1;entryDx=0;entryDy=0;" edge="1" parent="1" source="8" target="8">
                    <mxGeometry width="50" height="50" relative="1" as="geometry">
                        <mxPoint x="270" y="-20" as="sourcePoint"/>
                        <mxPoint x="320" y="-70" as="targetPoint"/>
                    </mxGeometry>
                </mxCell>
                <mxCell id="13" value="Home" style="text;html=1;strokeColor=none;fillColor=none;align=center;verticalAlign=middle;whiteSpace=wrap;rounded=0;" vertex="1" parent="1">
                    <mxGeometry x="310" y="39" width="60" height="30" as="geometry"/>
                </mxCell>
                <mxCell id="14" value="About" style="text;html=1;strokeColor=none;fillColor=none;align=center;verticalAlign=middle;whiteSpace=wrap;rounded=0;" vertex="1" parent="1">
                    <mxGeometry x="520" y="40" width="60" height="30" as="geometry"/>
                </mxCell>
                <mxCell id="15" value="Contact" style="text;html=1;strokeColor=none;fillColor=none;align=center;verticalAlign=middle;whiteSpace=wrap;rounded=0;" vertex="1" parent="1">
                    <mxGeometry x="720" y="40" width="60" height="30" as="geometry"/>
                </mxCell>
                <mxCell id="23" value="showContent for pages" style="text;html=1;strokeColor=none;fillColor=none;align=center;verticalAlign=middle;whiteSpace=wrap;rounded=0;" vertex="1" parent="1">
                    <mxGeometry x="245" width="145" height="30" as="geometry"/>
                </mxCell>
                <mxCell id="44" value="showBody" style="rounded=0;whiteSpace=wrap;html=1;" vertex="1" parent="1">
                    <mxGeometry x="250" y="60" width="200" height="40" as="geometry"/>
                </mxCell>
                <mxCell id="47" value="showBody" style="rounded=0;whiteSpace=wrap;html=1;" vertex="1" parent="1">
                    <mxGeometry x="450" y="60" width="200" height="40" as="geometry"/>
                </mxCell>
                <mxCell id="53" value="showBody" style="rounded=0;whiteSpace=wrap;html=1;" vertex="1" parent="1">
                    <mxGeometry x="650" y="60" width="200" height="40" as="geometry"/>
                </mxCell>
                <mxCell id="55" value="contact.showBody" style="text;html=1;strokeColor=none;fillColor=none;align=center;verticalAlign=middle;whiteSpace=wrap;rounded=0;" vertex="1" parent="1">
                    <mxGeometry x="648" y="130" width="120" height="30" as="geometry"/>
                </mxCell>
                <mxCell id="70" value="showBody" style="rounded=0;whiteSpace=wrap;html=1;" vertex="1" parent="1">
                    <mxGeometry x="850" y="60" width="200" height="40" as="geometry"/>
                </mxCell>
                <mxCell id="72" value="Register" style="text;html=1;strokeColor=none;fillColor=none;align=center;verticalAlign=middle;whiteSpace=wrap;rounded=0;" vertex="1" parent="1">
                    <mxGeometry x="920" y="40" width="60" height="30" as="geometry"/>
                </mxCell>
                <mxCell id="73" value="Login" style="text;html=1;strokeColor=none;fillColor=none;align=center;verticalAlign=middle;whiteSpace=wrap;rounded=0;" vertex="1" parent="1">
                    <mxGeometry x="1120" y="40" width="60" height="30" as="geometry"/>
                </mxCell>
                <mxCell id="75" value="showBody" style="rounded=0;whiteSpace=wrap;html=1;" vertex="1" parent="1">
                    <mxGeometry x="1050" y="60" width="200" height="40" as="geometry"/>
                </mxCell>
                <mxCell id="76" value="showBody" style="rounded=0;whiteSpace=wrap;html=1;" vertex="1" parent="1">
                    <mxGeometry x="1250" y="60" width="200" height="40" as="geometry"/>
                </mxCell>
                <mxCell id="77" value="logout" style="text;html=1;strokeColor=none;fillColor=none;align=center;verticalAlign=middle;whiteSpace=wrap;rounded=0;" vertex="1" parent="1">
                    <mxGeometry x="1320" y="40" width="60" height="30" as="geometry"/>
                </mxCell>
                <mxCell id="120" value="Register.showBody" style="text;html=1;strokeColor=none;fillColor=none;align=center;verticalAlign=middle;whiteSpace=wrap;rounded=0;fontStyle=2" vertex="1" parent="1">
                    <mxGeometry x="450" y="310" width="130" height="30" as="geometry"/>
                </mxCell>
                <mxCell id="121" value="endSession" style="rounded=0;whiteSpace=wrap;html=1;" vertex="1" parent="1">
                    <mxGeometry x="1250" y="100" width="200" height="40" as="geometry"/>
                </mxCell>
                <mxCell id="122" value="page = home" style="rounded=0;whiteSpace=wrap;html=1;" vertex="1" parent="1">
                    <mxGeometry x="1250" y="140" width="200" height="40" as="geometry"/>
                </mxCell>
                <mxCell id="151" value="Login.showBody" style="text;html=1;strokeColor=none;fillColor=none;align=center;verticalAlign=middle;whiteSpace=wrap;rounded=0;fontStyle=2" vertex="1" parent="1">
                    <mxGeometry x="870" y="310" width="130" height="30" as="geometry"/>
                </mxCell>
                <mxCell id="100" value="Data in PostData" style="rounded=0;whiteSpace=wrap;html=1;align=left;verticalAlign=top;" vertex="1" parent="1">
                    <mxGeometry x="650" y="520" width="200" height="60" as="geometry"/>
                </mxCell>
                <mxCell id="88" value="Method" style="rounded=0;whiteSpace=wrap;html=1;verticalAlign=top;" vertex="1" parent="1">
                    <mxGeometry x="450" y="340" width="400" height="40" as="geometry"/>
                </mxCell>
                <mxCell id="89" value="showForm" style="rounded=0;whiteSpace=wrap;html=1;" vertex="1" parent="1">
                    <mxGeometry x="450" y="380" width="200" height="40" as="geometry"/>
                </mxCell>
                <mxCell id="90" value="getFormData(Register)" style="rounded=0;whiteSpace=wrap;html=1;" vertex="1" parent="1">
                    <mxGeometry x="650" y="380" width="200" height="40" as="geometry"/>
                </mxCell>
                <mxCell id="91" value="" style="endArrow=none;html=1;entryX=0;entryY=0;entryDx=0;entryDy=0;exitX=1;exitY=1;exitDx=0;exitDy=0;" edge="1" parent="1" source="88" target="88">
                    <mxGeometry width="50" height="50" relative="1" as="geometry">
                        <mxPoint x="540" y="490" as="sourcePoint"/>
                        <mxPoint x="590" y="440" as="targetPoint"/>
                    </mxGeometry>
                </mxCell>
                <mxCell id="93" value="GET" style="text;html=1;strokeColor=none;fillColor=none;align=center;verticalAlign=middle;whiteSpace=wrap;rounded=0;" vertex="1" parent="1">
                    <mxGeometry x="520" y="360" width="60" height="30" as="geometry"/>
                </mxCell>
                <mxCell id="94" value="POST" style="text;html=1;strokeColor=none;fillColor=none;align=center;verticalAlign=middle;whiteSpace=wrap;rounded=0;" vertex="1" parent="1">
                    <mxGeometry x="720" y="360" width="60" height="30" as="geometry"/>
                </mxCell>
                <mxCell id="95" value="getDataFromPost" style="rounded=0;whiteSpace=wrap;html=1;" vertex="1" parent="1">
                    <mxGeometry x="650" y="420" width="200" height="40" as="geometry"/>
                </mxCell>
                <mxCell id="97" value="Data in PostData" style="rounded=0;whiteSpace=wrap;html=1;align=left;verticalAlign=top;" vertex="1" parent="1">
                    <mxGeometry x="650" y="460" width="200" height="60" as="geometry"/>
                </mxCell>
                <mxCell id="96" value="getPostVar" style="rounded=0;whiteSpace=wrap;html=1;" vertex="1" parent="1">
                    <mxGeometry x="670" y="480" width="180" height="40" as="geometry"/>
                </mxCell>
                <mxCell id="99" value="validateField" style="rounded=0;whiteSpace=wrap;html=1;" vertex="1" parent="1">
                    <mxGeometry x="670" y="540" width="180" height="40" as="geometry"/>
                </mxCell>
                <mxCell id="110" value="Result in results" style="rounded=0;whiteSpace=wrap;html=1;align=left;verticalAlign=top;" vertex="1" parent="1">
                    <mxGeometry x="650" y="580" width="200" height="100" as="geometry"/>
                </mxCell>
                <mxCell id="118" value="" style="group" vertex="1" connectable="0" parent="1">
                    <mxGeometry x="670" y="600" width="180" height="80" as="geometry"/>
                </mxCell>
                <mxCell id="112" value="empty(error)" style="rounded=0;whiteSpace=wrap;html=1;verticalAlign=top;" vertex="1" parent="118">
                    <mxGeometry width="180" height="40" as="geometry"/>
                </mxCell>
                <mxCell id="113" value="" style="rounded=0;whiteSpace=wrap;html=1;" vertex="1" parent="118">
                    <mxGeometry y="40" width="90" height="40" as="geometry"/>
                </mxCell>
                <mxCell id="114" value="inputValid = false" style="rounded=0;whiteSpace=wrap;html=1;" vertex="1" parent="118">
                    <mxGeometry x="90" y="40" width="90" height="40" as="geometry"/>
                </mxCell>
                <mxCell id="115" value="" style="endArrow=none;html=1;entryX=0;entryY=0;entryDx=0;entryDy=0;exitX=1;exitY=1;exitDx=0;exitDy=0;" edge="1" parent="118" source="112" target="112">
                    <mxGeometry width="50" height="50" relative="1" as="geometry">
                        <mxPoint x="-904.5" y="-430" as="sourcePoint"/>
                        <mxPoint x="-882" y="-480" as="targetPoint"/>
                    </mxGeometry>
                </mxCell>
                <mxCell id="116" value="true" style="text;html=1;strokeColor=none;fillColor=none;align=center;verticalAlign=middle;whiteSpace=wrap;rounded=0;" vertex="1" parent="118">
                    <mxGeometry x="31.5" y="20" width="27" height="30" as="geometry"/>
                </mxCell>
                <mxCell id="117" value="false" style="text;html=1;strokeColor=none;fillColor=none;align=center;verticalAlign=middle;whiteSpace=wrap;rounded=0;" vertex="1" parent="118">
                    <mxGeometry x="121.5" y="20" width="27" height="30" as="geometry"/>
                </mxCell>
                <mxCell id="101" value="inputValid" style="rounded=0;whiteSpace=wrap;html=1;verticalAlign=top;" vertex="1" parent="1">
                    <mxGeometry x="650" y="680" width="200" height="40" as="geometry"/>
                </mxCell>
                <mxCell id="102" value="startSession" style="rounded=0;whiteSpace=wrap;html=1;" vertex="1" parent="1">
                    <mxGeometry x="648" y="760" width="100" height="40" as="geometry"/>
                </mxCell>
                <mxCell id="103" value="showForm" style="rounded=0;whiteSpace=wrap;html=1;" vertex="1" parent="1">
                    <mxGeometry x="750" y="720" width="100" height="40" as="geometry"/>
                </mxCell>
                <mxCell id="104" value="" style="endArrow=none;html=1;entryX=0;entryY=0;entryDx=0;entryDy=0;exitX=1;exitY=1;exitDx=0;exitDy=0;" edge="1" parent="1" source="101" target="101">
                    <mxGeometry width="50" height="50" relative="1" as="geometry">
                        <mxPoint x="695" y="830" as="sourcePoint"/>
                        <mxPoint x="720" y="780" as="targetPoint"/>
                    </mxGeometry>
                </mxCell>
                <mxCell id="106" value="true" style="text;html=1;strokeColor=none;fillColor=none;align=center;verticalAlign=middle;whiteSpace=wrap;rounded=0;" vertex="1" parent="1">
                    <mxGeometry x="685" y="700" width="30" height="30" as="geometry"/>
                </mxCell>
                <mxCell id="107" value="false" style="text;html=1;strokeColor=none;fillColor=none;align=center;verticalAlign=middle;whiteSpace=wrap;rounded=0;" vertex="1" parent="1">
                    <mxGeometry x="785" y="700" width="30" height="30" as="geometry"/>
                </mxCell>
                <mxCell id="108" value="Page = login" style="rounded=0;whiteSpace=wrap;html=1;" vertex="1" parent="1">
                    <mxGeometry x="648" y="800" width="100" height="40" as="geometry"/>
                </mxCell>
                <mxCell id="152" value="storeResults" style="rounded=0;whiteSpace=wrap;html=1;" vertex="1" parent="1">
                    <mxGeometry x="648" y="720" width="100" height="40" as="geometry"/>
                </mxCell>
                <mxCell id="124" value="Data in PostData" style="rounded=0;whiteSpace=wrap;html=1;align=left;verticalAlign=top;" vertex="1" parent="1">
                    <mxGeometry x="1070" y="520" width="200" height="60" as="geometry"/>
                </mxCell>
                <mxCell id="125" value="Method" style="rounded=0;whiteSpace=wrap;html=1;verticalAlign=top;" vertex="1" parent="1">
                    <mxGeometry x="870" y="340" width="400" height="40" as="geometry"/>
                </mxCell>
                <mxCell id="126" value="showForm" style="rounded=0;whiteSpace=wrap;html=1;" vertex="1" parent="1">
                    <mxGeometry x="870" y="380" width="200" height="40" as="geometry"/>
                </mxCell>
                <mxCell id="127" value="getFormData(Login)" style="rounded=0;whiteSpace=wrap;html=1;" vertex="1" parent="1">
                    <mxGeometry x="1070" y="380" width="200" height="40" as="geometry"/>
                </mxCell>
                <mxCell id="128" value="" style="endArrow=none;html=1;entryX=0;entryY=0;entryDx=0;entryDy=0;exitX=1;exitY=1;exitDx=0;exitDy=0;" edge="1" parent="1" source="125" target="125">
                    <mxGeometry width="50" height="50" relative="1" as="geometry">
                        <mxPoint x="960" y="490" as="sourcePoint"/>
                        <mxPoint x="1010" y="440" as="targetPoint"/>
                    </mxGeometry>
                </mxCell>
                <mxCell id="129" value="GET" style="text;html=1;strokeColor=none;fillColor=none;align=center;verticalAlign=middle;whiteSpace=wrap;rounded=0;" vertex="1" parent="1">
                    <mxGeometry x="940" y="360" width="60" height="30" as="geometry"/>
                </mxCell>
                <mxCell id="130" value="POST" style="text;html=1;strokeColor=none;fillColor=none;align=center;verticalAlign=middle;whiteSpace=wrap;rounded=0;" vertex="1" parent="1">
                    <mxGeometry x="1140" y="360" width="60" height="30" as="geometry"/>
                </mxCell>
                <mxCell id="131" value="getDataFromPost" style="rounded=0;whiteSpace=wrap;html=1;" vertex="1" parent="1">
                    <mxGeometry x="1070" y="420" width="200" height="40" as="geometry"/>
                </mxCell>
                <mxCell id="132" value="Data in PostData" style="rounded=0;whiteSpace=wrap;html=1;align=left;verticalAlign=top;" vertex="1" parent="1">
                    <mxGeometry x="1070" y="460" width="200" height="60" as="geometry"/>
                </mxCell>
                <mxCell id="133" value="getPostVar" style="rounded=0;whiteSpace=wrap;html=1;" vertex="1" parent="1">
                    <mxGeometry x="1090" y="480" width="180" height="40" as="geometry"/>
                </mxCell>
                <mxCell id="134" value="validateField" style="rounded=0;whiteSpace=wrap;html=1;" vertex="1" parent="1">
                    <mxGeometry x="1090" y="540" width="180" height="40" as="geometry"/>
                </mxCell>
                <mxCell id="135" value="" style="group" vertex="1" connectable="0" parent="1">
                    <mxGeometry x="1070" y="680" width="200" height="120" as="geometry"/>
                </mxCell>
                <mxCell id="136" value="inputValid" style="rounded=0;whiteSpace=wrap;html=1;verticalAlign=top;" vertex="1" parent="135">
                    <mxGeometry width="200" height="40" as="geometry"/>
                </mxCell>
                <mxCell id="137" value="startSession" style="rounded=0;whiteSpace=wrap;html=1;" vertex="1" parent="135">
                    <mxGeometry y="40" width="100" height="40" as="geometry"/>
                </mxCell>
                <mxCell id="138" value="showForm" style="rounded=0;whiteSpace=wrap;html=1;" vertex="1" parent="135">
                    <mxGeometry x="100" y="40" width="100" height="40" as="geometry"/>
                </mxCell>
                <mxCell id="139" value="" style="endArrow=none;html=1;entryX=0;entryY=0;entryDx=0;entryDy=0;exitX=1;exitY=1;exitDx=0;exitDy=0;" edge="1" parent="135" source="136" target="136">
                    <mxGeometry width="50" height="50" relative="1" as="geometry">
                        <mxPoint x="45" y="150" as="sourcePoint"/>
                        <mxPoint x="70" y="100" as="targetPoint"/>
                    </mxGeometry>
                </mxCell>
                <mxCell id="140" value="true" style="text;html=1;strokeColor=none;fillColor=none;align=center;verticalAlign=middle;whiteSpace=wrap;rounded=0;" vertex="1" parent="135">
                    <mxGeometry x="35" y="20" width="30" height="30" as="geometry"/>
                </mxCell>
                <mxCell id="141" value="false" style="text;html=1;strokeColor=none;fillColor=none;align=center;verticalAlign=middle;whiteSpace=wrap;rounded=0;" vertex="1" parent="135">
                    <mxGeometry x="135" y="20" width="30" height="30" as="geometry"/>
                </mxCell>
                <mxCell id="142" value="Page = home" style="rounded=0;whiteSpace=wrap;html=1;" vertex="1" parent="135">
                    <mxGeometry y="80" width="100" height="40" as="geometry"/>
                </mxCell>
                <mxCell id="143" value="Result in results" style="rounded=0;whiteSpace=wrap;html=1;align=left;verticalAlign=top;" vertex="1" parent="1">
                    <mxGeometry x="1070" y="580" width="200" height="100" as="geometry"/>
                </mxCell>
                <mxCell id="144" value="" style="group" vertex="1" connectable="0" parent="1">
                    <mxGeometry x="1090" y="600" width="180" height="80" as="geometry"/>
                </mxCell>
                <mxCell id="145" value="empty(error)" style="rounded=0;whiteSpace=wrap;html=1;verticalAlign=top;" vertex="1" parent="144">
                    <mxGeometry width="180" height="40" as="geometry"/>
                </mxCell>
                <mxCell id="146" value="" style="rounded=0;whiteSpace=wrap;html=1;" vertex="1" parent="144">
                    <mxGeometry y="40" width="90" height="40" as="geometry"/>
                </mxCell>
                <mxCell id="147" value="inputValid = false" style="rounded=0;whiteSpace=wrap;html=1;" vertex="1" parent="144">
                    <mxGeometry x="90" y="40" width="90" height="40" as="geometry"/>
                </mxCell>
                <mxCell id="148" value="" style="endArrow=none;html=1;entryX=0;entryY=0;entryDx=0;entryDy=0;exitX=1;exitY=1;exitDx=0;exitDy=0;" edge="1" parent="144" source="145" target="145">
                    <mxGeometry width="50" height="50" relative="1" as="geometry">
                        <mxPoint x="-904.5" y="-430" as="sourcePoint"/>
                        <mxPoint x="-882" y="-480" as="targetPoint"/>
                    </mxGeometry>
                </mxCell>
                <mxCell id="149" value="true" style="text;html=1;strokeColor=none;fillColor=none;align=center;verticalAlign=middle;whiteSpace=wrap;rounded=0;" vertex="1" parent="144">
                    <mxGeometry x="31.5" y="20" width="27" height="30" as="geometry"/>
                </mxCell>
                <mxCell id="150" value="false" style="text;html=1;strokeColor=none;fillColor=none;align=center;verticalAlign=middle;whiteSpace=wrap;rounded=0;" vertex="1" parent="144">
                    <mxGeometry x="121.5" y="20" width="27" height="30" as="geometry"/>
                </mxCell>
            </root>
        </mxGraphModel>
    </diagram>
</mxfile>